<?xml version="1.0" ?><svg viewBox="0 0 64 64" xmlns="http://www.w3.org/2000/svg"><title/><g data-name="13-Mask" id="_13-Mask"><path d="M8,49l2,3L5.43,54.61a1.868,1.868,0,0,1-1.43.4,3.034,3.034,0,0,1-2.55-1.34L1,53Z" style="fill:#21abab"/><path d="M1.84,23.4,8,19v3L1,27V25.03A2,2,0,0,1,1.84,23.4Z" style="fill:#21abab"/><path d="M56,19l6.16,4.4A2,2,0,0,1,63,25.03V27l-7-5Z" style="fill:#21abab"/><path d="M63,53l-.45.67A3.034,3.034,0,0,1,60,55.01a1.868,1.868,0,0,1-1.43-.4L54,52l2-3Z" style="fill:#21abab"/><polygon points="16 19 16 22 10.67 22 8 22 8 19 13.45 19 16 19" style="fill:#34c1ad"/><path d="M32,39c9,0,13-1,13-1V50a46.018,46.018,0,0,1-13,2,46.018,46.018,0,0,1-13-2V38S23,39,32,39Z" style="fill:#34c1ad"/><polygon points="10.34 47.6 13 46 15 49 12.95 50.23 10 52 8 49 10.34 47.6" style="fill:#34c1ad"/><polygon points="56 49 54 52 51.05 50.23 49 49 51 46 53.66 47.6 56 49" style="fill:#34c1ad"/><polygon points="50.55 19 56 19 56 22 53.33 22 48 22 48 19 50.55 19" style="fill:#34c1ad"/><path d="M49,49l2.05,1.23-.05.09C46.87,53.96,40.79,57,32,57s-14.87-3.04-19-6.68l-.05-.09L15,49l-2-3-2.66,1.6A27.7,27.7,0,0,1,6.7,42.15,15.669,15.669,0,0,1,5,34.98V33c0-5.62,2.47-7.78,5.67-11H16V19H13.45c.51-.61,1.03-1.27,1.55-2a32.165,32.165,0,0,1,9.66-8.76A8.891,8.891,0,0,1,29.21,7h5.58a8.891,8.891,0,0,1,4.55,1.24A32.165,32.165,0,0,1,49,17c.52.73,1.04,1.39,1.55,2H48v3h5.33C56.53,25.22,59,27.38,59,33v1.98a15.669,15.669,0,0,1-1.7,7.17,27.7,27.7,0,0,1-3.64,5.45L51,46Zm-4,1V38s-4,1-13,1-13-1-13-1V50a46.018,46.018,0,0,0,13,2A46.018,46.018,0,0,0,45,50Z" style="fill:#f5f5f5"/><polygon points="61 51.857 63 53 63 27 61 25.571 61 51.857" style="fill:#107c82"/><polygon points="3 25.571 1 27 1 53 3 51.857 3 25.571" style="fill:#107c82"/><path d="M19.828,16H20.99a5.4,5.4,0,0,0,3.57-1.34c1.05-.91,2.4-2.13,3.33-3.12A4.971,4.971,0,0,1,31.48,10h1.04a4.971,4.971,0,0,1,3.59,1.54c.93.99,2.28,2.21,3.33,3.12A5.4,5.4,0,0,0,43.01,16h1.162a2,2,0,0,1,1.414.586L48,19h2.55c-.51-.61-1.03-1.27-1.55-2a32.165,32.165,0,0,0-9.66-8.76A8.891,8.891,0,0,0,34.79,7H29.21a8.891,8.891,0,0,0-4.55,1.24A32.165,32.165,0,0,0,15,17c-.52.73-1.04,1.39-1.55,2H16l2.414-2.414A2,2,0,0,1,19.828,16Z" style="fill:#e3e3e3"/><path d="M43.01,15a4.415,4.415,0,0,1-2.915-1.1c-.788-.683-2.258-1.988-3.263-3.057A6.007,6.007,0,0,0,32.52,9H31.48a6.009,6.009,0,0,0-4.318,1.855c-1,1.062-2.469,2.367-3.262,3.054A4.409,4.409,0,0,1,20.99,15H20a1,1,0,0,0-1,1h0a1,1,0,0,0,1,1h.99a6.4,6.4,0,0,0,4.225-1.584c.817-.708,2.345-2.064,3.4-3.184A3.947,3.947,0,0,1,31.48,11h1.04a3.94,3.94,0,0,1,2.861,1.225c1.059,1.127,2.587,2.483,3.4,3.187A6.406,6.406,0,0,0,43.01,17H44a1,1,0,0,0,1-1h0a1,1,0,0,0-1-1Z" style="fill:#d4d4d4"/><path d="M19,46.256V50a46.018,46.018,0,0,0,13,2,46.018,46.018,0,0,0,13-2V46.256A42.31,42.31,0,0,1,32,48,42.31,42.31,0,0,1,19,46.256Z" style="fill:#21abab"/><path d="M53.33,22H48s7,1,7,12c0,6.37-3.9,10.245-10,12.256V50a46.018,46.018,0,0,1-13,2,46.018,46.018,0,0,1-13-2V46.256C12.9,44.245,9,40.37,9,34c0-11,7-12,7-12H10.67C7.47,25.22,5,27.38,5,33v1.98a15.669,15.669,0,0,0,1.7,7.17,27.7,27.7,0,0,0,3.64,5.45L13,46l2,3-2.05,1.23.05.09C17.13,53.96,23.21,57,32,57s14.87-3.04,19-6.68l.05-.09L49,49l2-3,2.66,1.6a27.7,27.7,0,0,0,3.64-5.45A15.669,15.669,0,0,0,59,34.98V33C59,27.38,56.53,25.22,53.33,22Z" style="fill:#e3e3e3"/><polygon points="25 43 24 43 24 42 22 42 22 43 21 43 21 45 22 45 22 46 24 46 24 45 25 45 25 43" style="fill:#f5f5f5"/><rect height="2" rx="1" style="fill:#f5f5f5" width="10" x="27" y="41"/><rect height="2" rx="1" style="fill:#f5f5f5" width="12" x="26" y="44"/><rect height="2" rx="1" style="fill:#f5f5f5" width="12" x="26" y="47"/></g></svg>